<?xml version="1.0" standalone="no"?>
<!DOCTYPE svg PUBLIC "-//W3C//DTD SVG 20010904//EN"
 "http://www.w3.org/TR/2001/REC-SVG-20010904/DTD/svg10.dtd">
<svg version="1.0" xmlns="http://www.w3.org/2000/svg"
 width="658.000000pt" height="743.000000pt" viewBox="0 0 658.000000 743.000000"
 preserveAspectRatio="xMidYMid meet">

<g transform="translate(0.000000,743.000000) scale(0.100000,-0.100000)"
fill="#000000" stroke="none">
<path d="M743 6992 c-100 -40 -175 -116 -213 -219 -20 -54 -20 -57 -18 -2876
l3 -2822 34 -63 c39 -72 88 -120 163 -159 l53 -28 1012 -3 1012 -2 12 -43 c28
-103 98 -190 194 -240 l60 -32 1230 0 1230 0 67 33 c77 38 130 92 167 171 l26
56 0 2885 0 2885 -29 58 c-39 76 -116 148 -191 178 l-60 24 -1006 3 -1006 3
-32 49 c-39 61 -95 106 -169 136 l-57 24 -1220 -1 c-1123 0 -1223 -1 -1262
-17z m2468 -152 c20 -5 44 -19 54 -30 18 -20 18 -20 -93 -20 -97 0 -113 -2
-121 -18 -11 -21 -28 -2523 -17 -2566 7 -27 7 -27 84 -24 l77 3 2 710 c1 391
2 943 3 1228 l0 517 1138 -2 c1131 -3 1137 -3 1177 -24 48 -25 96 -97 104
-157 3 -23 4 -1309 1 -2858 l-5 -2815 -25 -37 c-14 -20 -46 -48 -71 -62 l-47
-25 -1180 0 c-808 0 -1190 3 -1209 11 -49 18 -123 102 -123 139 0 6 38 10 104
10 97 0 106 2 120 22 14 20 16 145 16 1141 0 1062 1 1119 18 1112 132 -56 229
-75 375 -75 223 0 400 75 455 193 46 101 36 189 -33 265 -69 77 -133 100 -468
172 -111 25 -157 53 -157 100 0 37 33 76 78 91 88 30 275 6 394 -50 l56 -27
56 74 c44 57 54 77 46 87 -17 21 -154 75 -229 91 -36 8 -120 14 -186 14 -182
1 -306 -36 -397 -118 -130 -117 -95 -317 71 -401 47 -25 85 -35 273 -76 204
-44 268 -77 268 -136 0 -66 -109 -106 -265 -96 -113 7 -196 29 -260 68 -40 25
-53 29 -67 20 -27 -17 -28 -15 -28 44 l0 56 -82 -3 -83 -3 3 -1202 3 -1203
-1111 0 c-1072 0 -1112 1 -1148 19 -47 24 -77 56 -97 105 -15 34 -16 293 -16
2817 1 2542 2 2783 17 2812 37 73 90 108 174 117 101 9 2313 0 2351 -10z"/>
<path d="M1303 6678 c-29 -14 -55 -71 -47 -102 15 -59 86 -86 139 -52 94 61 9
203 -92 154z"/>
<path d="M1625 6678 c-51 -27 -60 -84 -20 -123 l24 -25 355 0 c195 0 362 3
371 6 18 7 45 55 45 79 0 9 -13 30 -29 46 l-29 29 -349 0 c-232 -1 -355 -4
-368 -12z"/>
<path d="M3646 6444 c-37 -37 -35 -86 3 -125 20 -20 39 -29 61 -29 22 0 41 9
61 29 37 37 38 79 3 120 -35 41 -89 43 -128 5z"/>
<path d="M3965 6446 c-14 -14 -25 -35 -25 -46 0 -29 26 -76 45 -84 9 -3 176
-6 371 -6 l355 0 24 25 c30 29 32 74 6 106 l-19 24 -366 3 -366 3 -25 -25z"/>
<path d="M2949 4122 l-125 -3 -39 -87 c-21 -48 -101 -215 -178 -372 l-139
-285 -16 35 c-9 19 -69 145 -133 280 -64 135 -135 287 -159 338 l-43 92 -138
0 -138 0 153 -312 c84 -172 197 -400 250 -506 l96 -193 125 3 124 3 246 498
c136 274 245 501 243 505 -2 4 -59 6 -129 4z"/>
<path d="M1605 1303 c-56 -14 -76 -92 -35 -133 19 -19 33 -20 399 -20 368 0
379 1 405 21 42 33 35 99 -15 124 -23 12 -89 15 -381 14 -194 -1 -362 -4 -373
-6z"/>
<path d="M3943 980 c-47 -19 -57 -87 -18 -125 l24 -25 381 0 381 0 24 25 c30
29 32 74 6 106 l-19 24 -379 2 c-208 1 -388 -2 -400 -7z"/>
</g>
</svg>
